PathFileType	4	(X/Y/Z)	RBDS015static.trc
DataRate	CameraRate	NumFrames	NumMarkers	Units	OrigDataRate	OrigDataStartFrame	OrigNumFrames
150.000000	150.000000	4	48	mm	150.000000	75	150
Frame#	Time	L.Ankle			L.Ankle.Medial			L.ASIS			L.GTR			L.Heel.Bottom			L.Heel.Lateral			L.Heel.Top			L.HF			L.Iliac.Crest			L.Knee			L.Knee.Medial			L.MT1			L.MT2			L.MT5			L.PSIS			L.Shank.Bottom.Lateral			L.Shank.Bottom.Medial			L.Shank.Top.Lateral			L.Shank.Top.Medial			L.Thigh.Bottom.Lateral			L.Thigh.Bottom.Medial			L.Thigh.Top.Lateral			L.Thigh.Top.Medial			L.TT			R.Ankle			R.Ankle.Medial			R.ASIS			R.GTR			R.Heel.Bottom			R.Heel.Lateral			R.Heel.Top			R.HF			R.Iliac.Crest			R.Knee			R.Knee.Medial			R.MT1			R.MT2			R.MT5			R.PSIS			R.Shank.Bottom.Lateral			R.Shank.Bottom.Medial			R.Shank.Top.Lateral			R.Shank.Top.Medial			R.Thigh.Bottom.Lateral			R.Thigh.Bottom.Medial			R.Thigh.Top.Lateral			R.Thigh.Top.Medial			R.TT			
		X1	Y1	Z1	X2	Y2	Z2	X3	Y3	Z3	X4	Y4	Z4	X5	Y5	Z5	X6	Y6	Z6	X7	Y7	Z7	X8	Y8	Z8	X9	Y9	Z9	X10	Y10	Z10	X11	Y11	Z11	X12	Y12	Z12	X13	Y13	Z13	X14	Y14	Z14	X15	Y15	Z15	X16	Y16	Z16	X17	Y17	Z17	X18	Y18	Z18	X19	Y19	Z19	X20	Y20	Z20	X21	Y21	Z21	X22	Y22	Z22	X23	Y23	Z23	X24	Y24	Z24	X25	Y25	Z25	X26	Y26	Z26	X27	Y27	Z27	X28	Y28	Z28	X29	Y29	Z29	X30	Y30	Z30	X31	Y31	Z31	X32	Y32	Z32	X33	Y33	Z33	X34	Y34	Z34	X35	Y35	Z35	X36	Y36	Z36	X37	Y37	Z37	X38	Y38	Z38	X39	Y39	Z39	X40	Y40	Z40	X41	Y41	Z41	X42	Y42	Z42	X43	Y43	Z43	X44	Y44	Z44	X45	Y45	Z45	X46	Y46	Z46	X47	Y47	Z47	X48	Y48	Z48	

76	0.5	699.7505493164063	107.6270141601563	1032.687744140625	714.7350463867188	118.2753982543945	1120.848876953125	814.6141357421875	1081.443603515625	1094.8994140625	727.90625	988.7691040039063	1049.312377929688	636.9697875976563	39.94628143310547	1081.4052734375	661.2250366210938	58.32446670532227	1040.392700195313	642.8002319335938	82.39090728759766	1082.303466796875	695.9569091796875	511.5838928222656	1055.419067382813	734.1846923828125	1158.355590820313	1062.203979492188	696.4655151367188	571.3250122070313	1061.621948242188	701.7222290039063	556.2501831054688	1190.53271484375	843.8850708007813	61.17629241943359	1125.632446289063	853.13232421875	70.76705932617188	1079.511840820313	817.3941040039063	48.56130218505859	1013.102233886719	640.601318359375	1121.768188476563	1178.840576171875	692.0875854492188	211.0126800537109	1033.357299804688	648.8162231445313	205.0662078857422	1060.487915039063	683.0164794921875	291.3336486816406	1028.386474609375	638.212646484375	288.9222717285156	1057.245849609375	714.6220092773438	704.5859985351563	1041.164916992188	654.495849609375	703.7801513671875	1073.119750976563	710.4356079101563	814.9522094726563	1035.821044921875	648.863525390625	813.75732421875	1074.844116210938	753.7077026367188	476.7212829589844	1102.817138671875	692.3759155273438	114.8512268066406	1412.833618164063	716.782958984375	117.7259674072266	1326.751831054688	834.8475952148438	1074.902221679688	1323.239135742188	755.6005859375	989.419921875	1381.5537109375	633.0116577148438	41.09548568725586	1370.225708007813	660.6783447265625	61.75225448608398	1411.361572265625	641.4859008789063	87.74964904785156	1370.382690429688	716.1941528320313	511.3236694335938	1376.247436523438	754.1494750976563	1157.766357421875	1368.746215820313	718.0231323242188	576.763916015625	1368.986694335938	733.0115356445313	550.8345336914063	1242.71435546875	843.118896484375	59.63331604003906	1326.547607421875	851.21728515625	72.87699890136719	1375.483276367188	808.273681640625	50.09159469604492	1441.290405273438	646.716552734375	1121.566528320313	1270.32421875	701.7537231445313	208.8515167236328	1409.014892578125	653.6051635742188	206.0097351074219	1381.403686523438	694.6401977539063	290.1292724609375	1410.427368164063	648.8068237304688	286.3909912109375	1382.400024414063	731.0181884765625	725.52734375	1388.062255859375	668.1417846679688	721.9481811523438	1349.589599609375	718.8390502929688	834.8141479492188	1390.995727539063	661.4285888671875	831.6234741210938	1351.87060546875	777.2578735351563	486.4587097167969	1330.591552734375	
77	0.5066666666666667	699.754638671875	107.6257705688477	1032.676147460938	714.747802734375	118.2837371826172	1120.830932617188	814.6465454101563	1081.427490234375	1094.907836914063	727.9494018554688	988.769287109375	1049.31640625	636.966552734375	39.93836212158203	1081.402587890625	661.2343139648438	58.31322860717773	1040.390747070313	642.812255859375	82.38672637939453	1082.302978515625	695.979248046875	511.5846862792969	1055.417114257813	734.2274169921875	1158.3525390625	1062.190795898438	696.486572265625	571.3298950195313	1061.609985351563	701.7763061523438	556.1415405273438	1190.396240234375	843.8844604492188	61.17169570922852	1125.640869140625	853.1359252929688	70.75296020507813	1079.51123046875	817.3990478515625	48.55592727661133	1013.109375	640.6547241210938	1121.779907226563	1178.830444335938	692.0906372070313	211.0097198486328	1033.354736328125	648.8171997070313	205.0700836181641	1060.4814453125	683.0380249023438	291.3330688476563	1028.394775390625	638.2302856445313	288.9206237792969	1057.244262695313	714.659423828125	704.573974609375	1041.162841796875	654.5331420898438	703.778564453125	1073.118530273438	710.4635009765625	814.9461669921875	1035.821166992188	648.9002685546875	813.7615356445313	1074.835571289063	753.7219848632813	476.70947265625	1102.818237304688	692.379638671875	114.8498001098633	1412.829345703125	716.798828125	117.72216796875	1326.756713867188	834.8954467773438	1074.897338867188	1323.234497070313	755.5553588867188	989.375732421875	1381.1376953125	633.015380859375	41.09225845336914	1370.234497070313	660.6785278320313	61.75640487670898	1411.369506835938	641.4990844726563	87.75143432617188	1370.376342773438	716.2134399414063	511.3147277832031	1376.247436523438	754.1854858398438	1157.757080078125	1368.747314453125	718.0410766601563	576.7657470703125	1368.975219726563	733.047119140625	550.8240356445313	1242.716674804688	843.119140625	59.62263488769531	1326.551635742188	851.220703125	72.86982727050781	1375.493774414063	808.2669677734375	50.07845306396484	1441.296508789063	646.76318359375	1121.56787109375	1270.314086914063	701.7648315429688	208.8477020263672	1409.017333984375	653.6185302734375	206.0113372802734	1381.408569335938	694.6490478515625	290.1239624023438	1410.4326171875	648.8167724609375	286.3996276855469	1382.396484375	731.0411987304688	725.531494140625	1388.0546875	668.1585083007813	721.9459228515625	1349.5712890625	718.8676147460938	834.81591796875	1390.984497070313	661.458740234375	831.6260986328125	1351.862060546875	777.2650146484375	486.4595336914063	1330.5908203125	
78	0.5133333333333334	699.755126953125	107.6283340454102	1032.682495117188	714.7501220703125	118.2829971313477	1120.833374023438	814.6902465820313	1081.424926757813	1094.893432617188	727.9963989257813	988.7577514648438	1049.294311523438	636.9616088867188	39.94447326660156	1081.407836914063	661.2235717773438	58.314697265625	1040.398681640625	642.8021850585938	82.38361358642578	1082.299438476563	696.00048828125	511.5871276855469	1055.415649414063	734.2715454101563	1158.338989257813	1062.188842773438	696.5117797851563	571.3324584960938	1061.604736328125	701.7755126953125	556.246826171875	1190.520751953125	843.8770141601563	61.17291641235352	1125.634765625	853.1406860351563	70.76527404785156	1079.49658203125	817.4022216796875	48.55048370361328	1013.108581542969	640.7122192382813	1121.788330078125	1178.821655273438	692.0897216796875	211.0151824951172	1033.3564453125	648.8256225585938	205.0689544677734	1060.48046875	683.2206420898438	291.2233581542969	1028.4482421875	638.23876953125	288.9252319335938	1057.245727539063	714.68408203125	704.578369140625	1041.1552734375	654.5528564453125	703.7837524414063	1073.112915039063	710.4927978515625	814.9506225585938	1035.803100585938	648.9239501953125	813.762939453125	1074.83740234375	753.7428588867188	476.7140502929688	1102.808349609375	692.3768920898438	114.8414993286133	1412.828979492188	716.7820434570313	117.7258071899414	1326.750366210938	834.9381103515625	1074.890380859375	1323.23095703125	755.6759033203125	989.41748046875	1381.539916992188	633.0119018554688	41.09911346435547	1370.230224609375	660.6885375976563	61.75147247314453	1411.365966796875	641.494384765625	87.75505065917969	1370.372802734375	716.2236938476563	511.3124694824219	1376.232421875	754.2059326171875	1157.75830078125	1368.740600585938	718.0569458007813	576.7616577148438	1368.980346679688	733.0657348632813	550.829833984375	1242.716674804688	843.1235961914063	59.6273307800293	1326.5498046875	851.2197265625	72.86984252929688	1375.485717773438	808.2702026367188	50.08327484130859	1441.29638671875	646.805908203125	1121.582641601563	1270.306762695313	701.7698364257813	208.8524169921875	1409.014282226563	653.617919921875	206.0159606933594	1381.40673828125	694.6613159179688	290.1284484863281	1410.434326171875	648.827392578125	286.4043579101563	1382.392456054688	731.06640625	725.5365600585938	1388.05419921875	668.1764526367188	721.9584350585938	1349.573364257813	718.8993530273438	834.8218994140625	1390.977294921875	660.9510498046875	831.6402587890625	1351.902709960938	777.284912109375	486.4434814453125	1330.584838867188	
79	0.52	699.7647094726563	107.6248474121094	1032.681762695313	714.7446899414063	118.2804870605469	1120.848022460938	814.735107421875	1081.416137695313	1094.893310546875	728.05029296875	988.7591552734375	1049.294555664063	636.9669189453125	39.93872833251953	1081.408203125	661.2232666015625	58.32712173461914	1040.396484375	642.8062744140625	82.38599395751953	1082.302978515625	696.0153198242188	511.5890197753906	1055.4150390625	734.310546875	1158.33349609375	1062.183349609375	696.5317993164063	571.3284912109375	1061.601806640625	701.797607421875	556.264892578125	1190.533203125	843.8916015625	61.16427993774414	1125.644653320313	853.1316528320313	70.75698089599609	1079.49853515625	817.399169921875	48.5565185546875	1013.107971191406	640.7655029296875	1121.79833984375	1178.820068359375	692.104248046875	211.0145874023438	1033.356323242188	648.8294067382813	205.0785522460938	1060.471557617188	683.2210693359375	291.2254943847656	1028.44091796875	638.2479248046875	288.9258117675781	1057.24365234375	714.7158813476563	704.5729370117188	1041.150634765625	654.5838012695313	703.7782592773438	1073.109130859375	710.5438842773438	814.9419555664063	1035.799438476563	648.9576416015625	813.7709350585938	1074.827514648438	753.758056640625	476.7151794433594	1102.812133789063	692.3857421875	114.842658996582	1412.82568359375	716.79443359375	117.7272262573242	1326.75927734375	834.9730224609375	1074.886474609375	1323.232055664063	755.7130737304688	989.4215698242188	1381.537475585938	633.0126342773438	41.09899520874023	1370.23388671875	660.6942749023438	61.7548713684082	1411.367919921875	641.5037231445313	87.75061798095703	1370.389526367188	716.2438354492188	511.3198547363281	1376.236206054688	754.2415771484375	1157.74951171875	1368.736328125	718.0804443359375	576.7597045898438	1368.972290039063	733.0886840820313	550.8255615234375	1242.7080078125	843.12548828125	59.62704467773438	1326.55126953125	851.2245483398438	72.8712158203125	1375.491333007813	808.2711791992188	50.08484649658203	1441.296630859375	646.8598022460938	1121.591552734375	1270.30029296875	701.7667846679688	208.8543853759766	1409.012939453125	653.6246337890625	206.0199127197266	1381.401977539063	694.6651611328125	290.1353759765625	1410.431030273438	648.8343505859375	286.4141540527344	1382.393920898438	731.090087890625	725.5298461914063	1388.0517578125	668.204345703125	721.959716796875	1349.571411132813	718.9305419921875	834.829833984375	1390.972045898438	660.9878540039063	831.64599609375	1351.900268554688	777.2987670898438	486.4375915527344	1330.583251953125	
